<mxfile host="app.diagrams.net" agent="Mozilla/5.0 (Windows NT 10.0; Win64; x64) AppleWebKit/537.36 (KHTML, like Gecko) Chrome/131.0.0.0 Safari/537.36" version="24.8.6">
  <diagram name="Page-1" id="khRvM8BaE0wYAMtAOgp5">
    <mxGraphModel dx="4327" dy="3156" grid="1" gridSize="10" guides="1" tooltips="1" connect="1" arrows="1" fold="1" page="1" pageScale="1" pageWidth="827" pageHeight="1169" math="0" shadow="0">
      <root>
        <mxCell id="0" />
        <mxCell id="1" parent="0" />
        <mxCell id="ReFChXX15u1lok4fxAyE-50" value="" style="rounded=0;whiteSpace=wrap;html=1;fillColor=#ffe6cc;strokeColor=#d79b00;" parent="1" vertex="1">
          <mxGeometry x="234" y="661.5" width="816" height="115" as="geometry" />
        </mxCell>
        <mxCell id="ReFChXX15u1lok4fxAyE-12" value="" style="rounded=0;whiteSpace=wrap;html=1;fillColor=#ffe6cc;strokeColor=#d79b00;" parent="1" vertex="1">
          <mxGeometry x="234" y="-70" width="636" height="710" as="geometry" />
        </mxCell>
        <mxCell id="ReFChXX15u1lok4fxAyE-2" value="Ollma-Qwen" style="rounded=0;whiteSpace=wrap;html=1;fillColor=#bac8d3;strokeColor=#23445d;" parent="1" vertex="1">
          <mxGeometry x="410" y="1029" width="250" height="60" as="geometry" />
        </mxCell>
        <mxCell id="ReFChXX15u1lok4fxAyE-3" value="Fast CD CPU" style="rounded=0;whiteSpace=wrap;html=1;fillColor=#bac8d3;strokeColor=#23445d;" parent="1" vertex="1">
          <mxGeometry y="1029" width="250" height="60" as="geometry" />
        </mxCell>
        <mxCell id="ReFChXX15u1lok4fxAyE-40" style="edgeStyle=orthogonalEdgeStyle;rounded=0;orthogonalLoop=1;jettySize=auto;html=1;exitX=1;exitY=0.5;exitDx=0;exitDy=0;entryX=0;entryY=0.5;entryDx=0;entryDy=0;startArrow=blockThin;startFill=1;" parent="1" source="ReFChXX15u1lok4fxAyE-7" target="ReFChXX15u1lok4fxAyE-21" edge="1">
          <mxGeometry relative="1" as="geometry" />
        </mxCell>
        <mxCell id="ReFChXX15u1lok4fxAyE-7" value="Store Controller" style="rounded=0;whiteSpace=wrap;html=1;fillColor=#dae8fc;strokeColor=#6c8ebf;" parent="1" vertex="1">
          <mxGeometry x="264" y="280" width="120" height="60" as="geometry" />
        </mxCell>
        <mxCell id="ReFChXX15u1lok4fxAyE-43" style="edgeStyle=orthogonalEdgeStyle;rounded=0;orthogonalLoop=1;jettySize=auto;html=1;exitX=1;exitY=0.5;exitDx=0;exitDy=0;entryX=0;entryY=0.5;entryDx=0;entryDy=0;startArrow=blockThin;startFill=1;" parent="1" source="ReFChXX15u1lok4fxAyE-8" target="ReFChXX15u1lok4fxAyE-23" edge="1">
          <mxGeometry relative="1" as="geometry" />
        </mxCell>
        <mxCell id="ReFChXX15u1lok4fxAyE-8" value="Card Controller" style="rounded=0;whiteSpace=wrap;html=1;fillColor=#dae8fc;strokeColor=#6c8ebf;" parent="1" vertex="1">
          <mxGeometry x="264" y="430" width="120" height="60" as="geometry" />
        </mxCell>
        <mxCell id="ReFChXX15u1lok4fxAyE-37" style="edgeStyle=orthogonalEdgeStyle;rounded=0;orthogonalLoop=1;jettySize=auto;html=1;exitX=1;exitY=0.5;exitDx=0;exitDy=0;entryX=0;entryY=0.5;entryDx=0;entryDy=0;startArrow=blockThin;startFill=1;" parent="1" source="ReFChXX15u1lok4fxAyE-9" target="ReFChXX15u1lok4fxAyE-19" edge="1">
          <mxGeometry relative="1" as="geometry" />
        </mxCell>
        <mxCell id="ReFChXX15u1lok4fxAyE-9" value="User Controller" style="rounded=0;whiteSpace=wrap;html=1;fillColor=#dae8fc;strokeColor=#6c8ebf;" parent="1" vertex="1">
          <mxGeometry x="264" y="110" width="120" height="60" as="geometry" />
        </mxCell>
        <mxCell id="ReFChXX15u1lok4fxAyE-16" value="DB" style="shape=cylinder3;whiteSpace=wrap;html=1;boundedLbl=1;backgroundOutline=1;size=15;" parent="1" vertex="1">
          <mxGeometry x="900" y="270" width="60" height="80" as="geometry" />
        </mxCell>
        <mxCell id="ReFChXX15u1lok4fxAyE-38" style="edgeStyle=orthogonalEdgeStyle;rounded=0;orthogonalLoop=1;jettySize=auto;html=1;exitX=1;exitY=0.5;exitDx=0;exitDy=0;startArrow=blockThin;startFill=1;" parent="1" source="ReFChXX15u1lok4fxAyE-19" target="ReFChXX15u1lok4fxAyE-20" edge="1">
          <mxGeometry relative="1" as="geometry" />
        </mxCell>
        <mxCell id="ReFChXX15u1lok4fxAyE-19" value="Service" style="rounded=0;whiteSpace=wrap;html=1;fillColor=#e1d5e7;strokeColor=#9673a6;" parent="1" vertex="1">
          <mxGeometry x="460" y="110" width="120" height="60" as="geometry" />
        </mxCell>
        <mxCell id="ReFChXX15u1lok4fxAyE-20" value="Repo" style="rounded=0;whiteSpace=wrap;html=1;fillColor=#d5e8d4;strokeColor=#82b366;" parent="1" vertex="1">
          <mxGeometry x="660" y="110" width="120" height="60" as="geometry" />
        </mxCell>
        <mxCell id="ReFChXX15u1lok4fxAyE-41" style="edgeStyle=orthogonalEdgeStyle;rounded=0;orthogonalLoop=1;jettySize=auto;html=1;exitX=1;exitY=0.5;exitDx=0;exitDy=0;entryX=0;entryY=0.5;entryDx=0;entryDy=0;startArrow=blockThin;startFill=1;" parent="1" source="ReFChXX15u1lok4fxAyE-21" target="ReFChXX15u1lok4fxAyE-22" edge="1">
          <mxGeometry relative="1" as="geometry" />
        </mxCell>
        <mxCell id="ReFChXX15u1lok4fxAyE-21" value="Service" style="rounded=0;whiteSpace=wrap;html=1;fillColor=#e1d5e7;strokeColor=#9673a6;" parent="1" vertex="1">
          <mxGeometry x="460" y="280" width="120" height="60" as="geometry" />
        </mxCell>
        <mxCell id="gvAPsu0Vr6YO3klkIOTZ-37" style="edgeStyle=orthogonalEdgeStyle;rounded=0;orthogonalLoop=1;jettySize=auto;html=1;exitX=1;exitY=0.5;exitDx=0;exitDy=0;startArrow=classic;startFill=1;" parent="1" source="ReFChXX15u1lok4fxAyE-22" edge="1">
          <mxGeometry relative="1" as="geometry">
            <mxPoint x="900" y="309.38461538461524" as="targetPoint" />
          </mxGeometry>
        </mxCell>
        <mxCell id="ReFChXX15u1lok4fxAyE-22" value="Repo" style="rounded=0;whiteSpace=wrap;html=1;fillColor=#d5e8d4;strokeColor=#82b366;" parent="1" vertex="1">
          <mxGeometry x="660" y="280" width="120" height="60" as="geometry" />
        </mxCell>
        <mxCell id="ReFChXX15u1lok4fxAyE-44" style="edgeStyle=orthogonalEdgeStyle;rounded=0;orthogonalLoop=1;jettySize=auto;html=1;exitX=1;exitY=0.5;exitDx=0;exitDy=0;entryX=0;entryY=0.5;entryDx=0;entryDy=0;startArrow=blockThin;startFill=1;" parent="1" source="ReFChXX15u1lok4fxAyE-23" target="ReFChXX15u1lok4fxAyE-24" edge="1">
          <mxGeometry relative="1" as="geometry" />
        </mxCell>
        <mxCell id="ReFChXX15u1lok4fxAyE-24" value="Repo" style="rounded=0;whiteSpace=wrap;html=1;fillColor=#d5e8d4;strokeColor=#82b366;" parent="1" vertex="1">
          <mxGeometry x="660" y="430" width="120" height="60" as="geometry" />
        </mxCell>
        <mxCell id="ReFChXX15u1lok4fxAyE-46" style="edgeStyle=orthogonalEdgeStyle;rounded=0;orthogonalLoop=1;jettySize=auto;html=1;exitX=1;exitY=0.5;exitDx=0;exitDy=0;entryX=0;entryY=0.5;entryDx=0;entryDy=0;startArrow=blockThin;startFill=1;" parent="1" source="ReFChXX15u1lok4fxAyE-26" target="ReFChXX15u1lok4fxAyE-27" edge="1">
          <mxGeometry relative="1" as="geometry" />
        </mxCell>
        <mxCell id="ReFChXX15u1lok4fxAyE-26" value="Card Generator Controller" style="rounded=0;whiteSpace=wrap;html=1;fillColor=#dae8fc;strokeColor=#6c8ebf;" parent="1" vertex="1">
          <mxGeometry x="264" y="551" width="120" height="60" as="geometry" />
        </mxCell>
        <mxCell id="gvAPsu0Vr6YO3klkIOTZ-98" style="edgeStyle=orthogonalEdgeStyle;rounded=0;orthogonalLoop=1;jettySize=auto;html=1;exitX=0.5;exitY=1;exitDx=0;exitDy=0;entryX=0.5;entryY=0;entryDx=0;entryDy=0;" parent="1" source="ReFChXX15u1lok4fxAyE-27" target="gvAPsu0Vr6YO3klkIOTZ-87" edge="1">
          <mxGeometry relative="1" as="geometry" />
        </mxCell>
        <mxCell id="gvAPsu0Vr6YO3klkIOTZ-99" style="edgeStyle=orthogonalEdgeStyle;rounded=0;orthogonalLoop=1;jettySize=auto;html=1;exitX=0.5;exitY=1;exitDx=0;exitDy=0;entryX=0.5;entryY=0;entryDx=0;entryDy=0;" parent="1" source="ReFChXX15u1lok4fxAyE-27" target="ReFChXX15u1lok4fxAyE-59" edge="1">
          <mxGeometry relative="1" as="geometry" />
        </mxCell>
        <mxCell id="gvAPsu0Vr6YO3klkIOTZ-100" style="edgeStyle=orthogonalEdgeStyle;rounded=0;orthogonalLoop=1;jettySize=auto;html=1;exitX=0.5;exitY=1;exitDx=0;exitDy=0;entryX=0.5;entryY=0;entryDx=0;entryDy=0;" parent="1" source="ReFChXX15u1lok4fxAyE-27" target="gvAPsu0Vr6YO3klkIOTZ-88" edge="1">
          <mxGeometry relative="1" as="geometry" />
        </mxCell>
        <mxCell id="gvAPsu0Vr6YO3klkIOTZ-114" style="edgeStyle=orthogonalEdgeStyle;rounded=0;orthogonalLoop=1;jettySize=auto;html=1;exitX=1;exitY=0.5;exitDx=0;exitDy=0;entryX=0;entryY=0.5;entryDx=0;entryDy=0;" parent="1" source="ReFChXX15u1lok4fxAyE-27" target="gvAPsu0Vr6YO3klkIOTZ-113" edge="1">
          <mxGeometry relative="1" as="geometry" />
        </mxCell>
        <mxCell id="gvAPsu0Vr6YO3klkIOTZ-120" style="edgeStyle=orthogonalEdgeStyle;rounded=0;orthogonalLoop=1;jettySize=auto;html=1;exitX=0.5;exitY=0;exitDx=0;exitDy=0;entryX=1;entryY=0.5;entryDx=0;entryDy=0;" parent="1" source="ReFChXX15u1lok4fxAyE-27" target="gvAPsu0Vr6YO3klkIOTZ-119" edge="1">
          <mxGeometry relative="1" as="geometry">
            <Array as="points">
              <mxPoint x="521" y="620" />
              <mxPoint x="1060" y="620" />
              <mxPoint x="1060" y="40" />
            </Array>
          </mxGeometry>
        </mxCell>
        <mxCell id="9HMXi51ytBtQ5vhrzl-I-14" style="edgeStyle=orthogonalEdgeStyle;rounded=0;orthogonalLoop=1;jettySize=auto;html=1;entryX=0.5;entryY=0;entryDx=0;entryDy=0;" edge="1" parent="1" source="ReFChXX15u1lok4fxAyE-27" target="9HMXi51ytBtQ5vhrzl-I-8">
          <mxGeometry relative="1" as="geometry">
            <Array as="points">
              <mxPoint x="521" y="650" />
              <mxPoint x="930" y="650" />
            </Array>
          </mxGeometry>
        </mxCell>
        <mxCell id="ReFChXX15u1lok4fxAyE-27" value="Service" style="rounded=0;whiteSpace=wrap;html=1;fillColor=#e1d5e7;strokeColor=#9673a6;" parent="1" vertex="1">
          <mxGeometry x="461" y="550" width="120" height="60" as="geometry" />
        </mxCell>
        <mxCell id="ReFChXX15u1lok4fxAyE-59" value="&lt;font color=&quot;#ffffff&quot;&gt;Text Queue&lt;/font&gt;" style="rounded=0;whiteSpace=wrap;html=1;fillColor=#0EE2DB;fontColor=#ffffff;strokeColor=#006EAF;" parent="1" vertex="1">
          <mxGeometry x="455" y="691" width="134" height="66" as="geometry" />
        </mxCell>
        <mxCell id="ReFChXX15u1lok4fxAyE-23" value="Service" style="rounded=0;whiteSpace=wrap;html=1;fillColor=#e1d5e7;strokeColor=#9673a6;" parent="1" vertex="1">
          <mxGeometry x="460" y="430" width="120" height="60" as="geometry" />
        </mxCell>
        <mxCell id="gvAPsu0Vr6YO3klkIOTZ-48" style="edgeStyle=orthogonalEdgeStyle;rounded=0;orthogonalLoop=1;jettySize=auto;html=1;exitX=1;exitY=0.5;exitDx=0;exitDy=0;exitPerimeter=0;entryX=0;entryY=0.5;entryDx=0;entryDy=0;" parent="1" source="ReFChXX15u1lok4fxAyE-4" target="gvAPsu0Vr6YO3klkIOTZ-46" edge="1">
          <mxGeometry relative="1" as="geometry" />
        </mxCell>
        <mxCell id="ReFChXX15u1lok4fxAyE-4" value="Front" style="fontColor=#0066CC;verticalAlign=top;verticalLabelPosition=bottom;labelPosition=center;align=center;html=1;outlineConnect=0;fillColor=#CCCCCC;strokeColor=#6881B3;gradientColor=none;gradientDirection=north;strokeWidth=2;shape=mxgraph.networks.pc;" parent="1" vertex="1">
          <mxGeometry x="-530" y="225" width="100" height="70" as="geometry" />
        </mxCell>
        <mxCell id="gvAPsu0Vr6YO3klkIOTZ-36" style="edgeStyle=orthogonalEdgeStyle;rounded=0;orthogonalLoop=1;jettySize=auto;html=1;exitX=1;exitY=0.5;exitDx=0;exitDy=0;entryX=0;entryY=0.5;entryDx=0;entryDy=0;entryPerimeter=0;startArrow=classic;startFill=1;" parent="1" source="ReFChXX15u1lok4fxAyE-24" target="ReFChXX15u1lok4fxAyE-16" edge="1">
          <mxGeometry relative="1" as="geometry" />
        </mxCell>
        <mxCell id="gvAPsu0Vr6YO3klkIOTZ-38" style="edgeStyle=orthogonalEdgeStyle;rounded=0;orthogonalLoop=1;jettySize=auto;html=1;exitX=1;exitY=0.5;exitDx=0;exitDy=0;entryX=0;entryY=0.5;entryDx=0;entryDy=0;entryPerimeter=0;startArrow=classic;startFill=1;" parent="1" source="ReFChXX15u1lok4fxAyE-20" target="ReFChXX15u1lok4fxAyE-16" edge="1">
          <mxGeometry relative="1" as="geometry" />
        </mxCell>
        <mxCell id="gvAPsu0Vr6YO3klkIOTZ-43" value="" style="rounded=0;whiteSpace=wrap;html=1;fillColor=#ffe6cc;strokeColor=#d79b00;" parent="1" vertex="1">
          <mxGeometry y="870" width="386" height="110" as="geometry" />
        </mxCell>
        <mxCell id="gvAPsu0Vr6YO3klkIOTZ-71" style="edgeStyle=orthogonalEdgeStyle;rounded=0;orthogonalLoop=1;jettySize=auto;html=1;exitX=1;exitY=0.5;exitDx=0;exitDy=0;entryX=0;entryY=0.5;entryDx=0;entryDy=0;" parent="1" source="gvAPsu0Vr6YO3klkIOTZ-46" target="ReFChXX15u1lok4fxAyE-9" edge="1">
          <mxGeometry relative="1" as="geometry" />
        </mxCell>
        <mxCell id="gvAPsu0Vr6YO3klkIOTZ-72" style="edgeStyle=orthogonalEdgeStyle;rounded=0;orthogonalLoop=1;jettySize=auto;html=1;exitX=1;exitY=0.5;exitDx=0;exitDy=0;entryX=0;entryY=0.5;entryDx=0;entryDy=0;" parent="1" source="gvAPsu0Vr6YO3klkIOTZ-46" target="ReFChXX15u1lok4fxAyE-7" edge="1">
          <mxGeometry relative="1" as="geometry" />
        </mxCell>
        <mxCell id="gvAPsu0Vr6YO3klkIOTZ-73" style="edgeStyle=orthogonalEdgeStyle;rounded=0;orthogonalLoop=1;jettySize=auto;html=1;exitX=1;exitY=0.5;exitDx=0;exitDy=0;entryX=0;entryY=0.5;entryDx=0;entryDy=0;" parent="1" source="gvAPsu0Vr6YO3klkIOTZ-46" target="ReFChXX15u1lok4fxAyE-8" edge="1">
          <mxGeometry relative="1" as="geometry" />
        </mxCell>
        <mxCell id="gvAPsu0Vr6YO3klkIOTZ-74" style="edgeStyle=orthogonalEdgeStyle;rounded=0;orthogonalLoop=1;jettySize=auto;html=1;exitX=1;exitY=0.5;exitDx=0;exitDy=0;entryX=0;entryY=0.5;entryDx=0;entryDy=0;" parent="1" source="gvAPsu0Vr6YO3klkIOTZ-46" target="ReFChXX15u1lok4fxAyE-26" edge="1">
          <mxGeometry relative="1" as="geometry" />
        </mxCell>
        <mxCell id="gvAPsu0Vr6YO3klkIOTZ-46" value="Proxy" style="rounded=0;whiteSpace=wrap;html=1;" parent="1" vertex="1">
          <mxGeometry x="-180" y="230" width="120" height="60" as="geometry" />
        </mxCell>
        <mxCell id="gvAPsu0Vr6YO3klkIOTZ-50" style="edgeStyle=orthogonalEdgeStyle;rounded=0;orthogonalLoop=1;jettySize=auto;html=1;exitX=1;exitY=0.5;exitDx=0;exitDy=0;entryX=0;entryY=0.5;entryDx=0;entryDy=0;startArrow=blockThin;startFill=1;" parent="1" source="gvAPsu0Vr6YO3klkIOTZ-51" target="gvAPsu0Vr6YO3klkIOTZ-54" edge="1">
          <mxGeometry relative="1" as="geometry" />
        </mxCell>
        <mxCell id="gvAPsu0Vr6YO3klkIOTZ-89" style="edgeStyle=orthogonalEdgeStyle;rounded=0;orthogonalLoop=1;jettySize=auto;html=1;exitX=0.5;exitY=0;exitDx=0;exitDy=0;entryX=0.5;entryY=1;entryDx=0;entryDy=0;startArrow=classic;startFill=1;endArrow=none;endFill=0;" parent="1" source="gvAPsu0Vr6YO3klkIOTZ-51" target="gvAPsu0Vr6YO3klkIOTZ-87" edge="1">
          <mxGeometry relative="1" as="geometry" />
        </mxCell>
        <mxCell id="gvAPsu0Vr6YO3klkIOTZ-51" value="Image Gen Listener" style="rounded=0;whiteSpace=wrap;html=1;fillColor=#dae8fc;strokeColor=#6c8ebf;" parent="1" vertex="1">
          <mxGeometry x="40" y="895" width="120" height="60" as="geometry" />
        </mxCell>
        <mxCell id="gvAPsu0Vr6YO3klkIOTZ-105" style="edgeStyle=orthogonalEdgeStyle;rounded=0;orthogonalLoop=1;jettySize=auto;html=1;exitX=0.5;exitY=1;exitDx=0;exitDy=0;entryX=0;entryY=0.5;entryDx=0;entryDy=0;" parent="1" source="gvAPsu0Vr6YO3klkIOTZ-54" target="ReFChXX15u1lok4fxAyE-26" edge="1">
          <mxGeometry relative="1" as="geometry">
            <Array as="points">
              <mxPoint x="296" y="1110" />
              <mxPoint x="-80" y="1110" />
              <mxPoint x="-80" y="581" />
            </Array>
          </mxGeometry>
        </mxCell>
        <mxCell id="gvAPsu0Vr6YO3klkIOTZ-108" style="edgeStyle=orthogonalEdgeStyle;rounded=0;orthogonalLoop=1;jettySize=auto;html=1;exitX=0.5;exitY=1;exitDx=0;exitDy=0;entryX=0.5;entryY=0;entryDx=0;entryDy=0;" parent="1" source="gvAPsu0Vr6YO3klkIOTZ-54" target="ReFChXX15u1lok4fxAyE-3" edge="1">
          <mxGeometry relative="1" as="geometry" />
        </mxCell>
        <mxCell id="gvAPsu0Vr6YO3klkIOTZ-54" value="Service" style="rounded=0;whiteSpace=wrap;html=1;fillColor=#e1d5e7;strokeColor=#9673a6;" parent="1" vertex="1">
          <mxGeometry x="236" y="895" width="120" height="60" as="geometry" />
        </mxCell>
        <mxCell id="gvAPsu0Vr6YO3klkIOTZ-63" value="" style="rounded=0;whiteSpace=wrap;html=1;fillColor=#ffe6cc;strokeColor=#d79b00;" parent="1" vertex="1">
          <mxGeometry x="410" y="870" width="386" height="110" as="geometry" />
        </mxCell>
        <mxCell id="gvAPsu0Vr6YO3klkIOTZ-64" style="edgeStyle=orthogonalEdgeStyle;rounded=0;orthogonalLoop=1;jettySize=auto;html=1;exitX=1;exitY=0.5;exitDx=0;exitDy=0;entryX=0;entryY=0.5;entryDx=0;entryDy=0;startArrow=blockThin;startFill=1;" parent="1" source="gvAPsu0Vr6YO3klkIOTZ-65" target="gvAPsu0Vr6YO3klkIOTZ-66" edge="1">
          <mxGeometry relative="1" as="geometry" />
        </mxCell>
        <mxCell id="gvAPsu0Vr6YO3klkIOTZ-65" value="Text Gen Listener" style="rounded=0;whiteSpace=wrap;html=1;fillColor=#dae8fc;strokeColor=#6c8ebf;" parent="1" vertex="1">
          <mxGeometry x="450" y="895" width="120" height="60" as="geometry" />
        </mxCell>
        <mxCell id="gvAPsu0Vr6YO3klkIOTZ-106" style="edgeStyle=orthogonalEdgeStyle;rounded=0;orthogonalLoop=1;jettySize=auto;html=1;exitX=0.5;exitY=1;exitDx=0;exitDy=0;entryX=0;entryY=0.5;entryDx=0;entryDy=0;" parent="1" source="gvAPsu0Vr6YO3klkIOTZ-66" target="ReFChXX15u1lok4fxAyE-26" edge="1">
          <mxGeometry relative="1" as="geometry">
            <Array as="points">
              <mxPoint x="706" y="1120" />
              <mxPoint x="-80" y="1120" />
              <mxPoint x="-80" y="581" />
            </Array>
          </mxGeometry>
        </mxCell>
        <mxCell id="gvAPsu0Vr6YO3klkIOTZ-107" style="edgeStyle=orthogonalEdgeStyle;rounded=0;orthogonalLoop=1;jettySize=auto;html=1;exitX=0.5;exitY=1;exitDx=0;exitDy=0;entryX=0.5;entryY=0;entryDx=0;entryDy=0;" parent="1" source="gvAPsu0Vr6YO3klkIOTZ-66" target="ReFChXX15u1lok4fxAyE-2" edge="1">
          <mxGeometry relative="1" as="geometry" />
        </mxCell>
        <mxCell id="gvAPsu0Vr6YO3klkIOTZ-66" value="Service" style="rounded=0;whiteSpace=wrap;html=1;fillColor=#e1d5e7;strokeColor=#9673a6;" parent="1" vertex="1">
          <mxGeometry x="646" y="895" width="120" height="60" as="geometry" />
        </mxCell>
        <mxCell id="gvAPsu0Vr6YO3klkIOTZ-67" value="" style="rounded=0;whiteSpace=wrap;html=1;fillColor=#ffe6cc;strokeColor=#d79b00;" parent="1" vertex="1">
          <mxGeometry x="810" y="870" width="520" height="110" as="geometry" />
        </mxCell>
        <mxCell id="gvAPsu0Vr6YO3klkIOTZ-68" style="edgeStyle=orthogonalEdgeStyle;rounded=0;orthogonalLoop=1;jettySize=auto;html=1;exitX=1;exitY=0.5;exitDx=0;exitDy=0;entryX=0;entryY=0.5;entryDx=0;entryDy=0;startArrow=blockThin;startFill=1;" parent="1" source="gvAPsu0Vr6YO3klkIOTZ-69" target="gvAPsu0Vr6YO3klkIOTZ-70" edge="1">
          <mxGeometry relative="1" as="geometry" />
        </mxCell>
        <mxCell id="gvAPsu0Vr6YO3klkIOTZ-91" style="edgeStyle=orthogonalEdgeStyle;rounded=0;orthogonalLoop=1;jettySize=auto;html=1;exitX=0.5;exitY=0;exitDx=0;exitDy=0;entryX=0.5;entryY=1;entryDx=0;entryDy=0;endArrow=none;endFill=0;startArrow=classic;startFill=1;" parent="1" source="gvAPsu0Vr6YO3klkIOTZ-69" target="gvAPsu0Vr6YO3klkIOTZ-88" edge="1">
          <mxGeometry relative="1" as="geometry" />
        </mxCell>
        <mxCell id="gvAPsu0Vr6YO3klkIOTZ-69" value="Stats gen Listener" style="rounded=0;whiteSpace=wrap;html=1;fillColor=#dae8fc;strokeColor=#6c8ebf;" parent="1" vertex="1">
          <mxGeometry x="850" y="895" width="120" height="60" as="geometry" />
        </mxCell>
        <mxCell id="gvAPsu0Vr6YO3klkIOTZ-109" style="edgeStyle=orthogonalEdgeStyle;rounded=0;orthogonalLoop=1;jettySize=auto;html=1;exitX=0.5;exitY=1;exitDx=0;exitDy=0;entryX=0;entryY=0.5;entryDx=0;entryDy=0;" parent="1" source="gvAPsu0Vr6YO3klkIOTZ-70" target="ReFChXX15u1lok4fxAyE-26" edge="1">
          <mxGeometry relative="1" as="geometry">
            <Array as="points">
              <mxPoint x="1106" y="1130" />
              <mxPoint x="-80" y="1130" />
              <mxPoint x="-80" y="581" />
            </Array>
          </mxGeometry>
        </mxCell>
        <mxCell id="gvAPsu0Vr6YO3klkIOTZ-112" style="edgeStyle=orthogonalEdgeStyle;rounded=0;orthogonalLoop=1;jettySize=auto;html=1;exitX=1;exitY=0.5;exitDx=0;exitDy=0;startArrow=classicThin;startFill=1;" parent="1" source="gvAPsu0Vr6YO3klkIOTZ-70" target="gvAPsu0Vr6YO3klkIOTZ-111" edge="1">
          <mxGeometry relative="1" as="geometry" />
        </mxCell>
        <mxCell id="gvAPsu0Vr6YO3klkIOTZ-70" value="Service" style="rounded=0;whiteSpace=wrap;html=1;fillColor=#e1d5e7;strokeColor=#9673a6;" parent="1" vertex="1">
          <mxGeometry x="1046" y="895" width="120" height="60" as="geometry" />
        </mxCell>
        <mxCell id="gvAPsu0Vr6YO3klkIOTZ-87" value="&lt;font color=&quot;#ffffff&quot;&gt;Image Queue&lt;/font&gt;" style="rounded=0;whiteSpace=wrap;html=1;fillColor=#0EE2DB;fontColor=#ffffff;strokeColor=#006EAF;" parent="1" vertex="1">
          <mxGeometry x="264" y="691" width="134" height="66" as="geometry" />
        </mxCell>
        <mxCell id="gvAPsu0Vr6YO3klkIOTZ-88" value="&lt;font color=&quot;#ffffff&quot;&gt;Stat Queue&lt;/font&gt;" style="rounded=0;whiteSpace=wrap;html=1;fillColor=#0EE2DB;fontColor=#ffffff;strokeColor=#006EAF;" parent="1" vertex="1">
          <mxGeometry x="660" y="691" width="134" height="66" as="geometry" />
        </mxCell>
        <mxCell id="gvAPsu0Vr6YO3klkIOTZ-93" value="Monolithique" style="text;html=1;align=center;verticalAlign=middle;whiteSpace=wrap;rounded=0;" parent="1" vertex="1">
          <mxGeometry x="236" y="-60" width="114" height="30" as="geometry" />
        </mxCell>
        <mxCell id="gvAPsu0Vr6YO3klkIOTZ-94" value="MicroService Génération de description" style="text;html=1;align=center;verticalAlign=middle;whiteSpace=wrap;rounded=0;" parent="1" vertex="1">
          <mxGeometry x="548" y="865" width="232" height="30" as="geometry" />
        </mxCell>
        <mxCell id="gvAPsu0Vr6YO3klkIOTZ-96" value="MicroService Génération Images" style="text;html=1;align=center;verticalAlign=middle;whiteSpace=wrap;rounded=0;" parent="1" vertex="1">
          <mxGeometry x="148" y="866" width="182" height="30" as="geometry" />
        </mxCell>
        <mxCell id="gvAPsu0Vr6YO3klkIOTZ-97" value="MicroService Génération de stats" style="text;html=1;align=center;verticalAlign=middle;whiteSpace=wrap;rounded=0;" parent="1" vertex="1">
          <mxGeometry x="946" y="865" width="204" height="30" as="geometry" />
        </mxCell>
        <mxCell id="gvAPsu0Vr6YO3klkIOTZ-111" value="Librairie" style="rounded=0;whiteSpace=wrap;html=1;fillColor=#bac8d3;strokeColor=#23445d;" parent="1" vertex="1">
          <mxGeometry x="1210" y="896" width="90" height="60" as="geometry" />
        </mxCell>
        <mxCell id="gvAPsu0Vr6YO3klkIOTZ-113" value="Repo" style="rounded=0;whiteSpace=wrap;html=1;fillColor=#d5e8d4;strokeColor=#82b366;" parent="1" vertex="1">
          <mxGeometry x="662" y="550" width="120" height="60" as="geometry" />
        </mxCell>
        <mxCell id="gvAPsu0Vr6YO3klkIOTZ-115" style="edgeStyle=orthogonalEdgeStyle;rounded=0;orthogonalLoop=1;jettySize=auto;html=1;exitX=1;exitY=0.5;exitDx=0;exitDy=0;entryX=0;entryY=0.5;entryDx=0;entryDy=0;entryPerimeter=0;startArrow=classic;startFill=1;" parent="1" source="gvAPsu0Vr6YO3klkIOTZ-113" target="ReFChXX15u1lok4fxAyE-16" edge="1">
          <mxGeometry relative="1" as="geometry" />
        </mxCell>
        <mxCell id="gvAPsu0Vr6YO3klkIOTZ-117" style="edgeStyle=orthogonalEdgeStyle;rounded=0;orthogonalLoop=1;jettySize=auto;html=1;exitX=0.5;exitY=1;exitDx=0;exitDy=0;entryX=0.5;entryY=0;entryDx=0;entryDy=0;" parent="1" source="ReFChXX15u1lok4fxAyE-59" target="gvAPsu0Vr6YO3klkIOTZ-65" edge="1">
          <mxGeometry relative="1" as="geometry">
            <Array as="points">
              <mxPoint x="510" y="757" />
            </Array>
          </mxGeometry>
        </mxCell>
        <mxCell id="9HMXi51ytBtQ5vhrzl-I-17" style="edgeStyle=orthogonalEdgeStyle;rounded=0;orthogonalLoop=1;jettySize=auto;html=1;entryX=1;entryY=0.5;entryDx=0;entryDy=0;" edge="1" parent="1" source="gvAPsu0Vr6YO3klkIOTZ-119" target="9HMXi51ytBtQ5vhrzl-I-16">
          <mxGeometry relative="1" as="geometry" />
        </mxCell>
        <mxCell id="gvAPsu0Vr6YO3klkIOTZ-119" value="NotifierService" style="rounded=0;whiteSpace=wrap;html=1;fillColor=#e1d5e7;strokeColor=#9673a6;" parent="1" vertex="1">
          <mxGeometry x="460" y="10" width="120" height="60" as="geometry" />
        </mxCell>
        <mxCell id="gvAPsu0Vr6YO3klkIOTZ-121" value="Queues" style="text;html=1;align=center;verticalAlign=middle;whiteSpace=wrap;rounded=0;" parent="1" vertex="1">
          <mxGeometry x="210" y="661" width="114" height="30" as="geometry" />
        </mxCell>
        <mxCell id="ZR1mIILZhfdRttXI2OpS-1" value="" style="rounded=0;whiteSpace=wrap;html=1;fillColor=#ffe6cc;strokeColor=#d79b00;" parent="1" vertex="1">
          <mxGeometry x="-476" y="871" width="386" height="139" as="geometry" />
        </mxCell>
        <mxCell id="ZR1mIILZhfdRttXI2OpS-3" value="MicroService Combat" style="text;html=1;align=center;verticalAlign=middle;whiteSpace=wrap;rounded=0;" parent="1" vertex="1">
          <mxGeometry x="-340" y="880" width="114" height="30" as="geometry" />
        </mxCell>
        <mxCell id="ZR1mIILZhfdRttXI2OpS-9" style="edgeStyle=orthogonalEdgeStyle;rounded=0;orthogonalLoop=1;jettySize=auto;html=1;exitX=1;exitY=0.5;exitDx=0;exitDy=0;entryX=0;entryY=0.5;entryDx=0;entryDy=0;startArrow=classic;startFill=1;" parent="1" source="ZR1mIILZhfdRttXI2OpS-6" target="ZR1mIILZhfdRttXI2OpS-8" edge="1">
          <mxGeometry relative="1" as="geometry">
            <Array as="points">
              <mxPoint x="-302" y="940" />
            </Array>
          </mxGeometry>
        </mxCell>
        <mxCell id="ZR1mIILZhfdRttXI2OpS-6" value="Webscoket" style="ellipse;whiteSpace=wrap;html=1;aspect=fixed;" parent="1" vertex="1">
          <mxGeometry x="-453" y="901" width="80" height="80" as="geometry" />
        </mxCell>
        <mxCell id="ZR1mIILZhfdRttXI2OpS-7" style="edgeStyle=orthogonalEdgeStyle;rounded=0;orthogonalLoop=1;jettySize=auto;html=1;exitX=0.5;exitY=0;exitDx=0;exitDy=0;startArrow=classic;startFill=1;entryX=0.5;entryY=1;entryDx=0;entryDy=0;" parent="1" source="ZR1mIILZhfdRttXI2OpS-6" target="ZR1mIILZhfdRttXI2OpS-11" edge="1">
          <mxGeometry relative="1" as="geometry">
            <mxPoint x="-270" y="370" as="targetPoint" />
            <Array as="points">
              <mxPoint x="-413" y="510" />
              <mxPoint x="-90" y="510" />
            </Array>
          </mxGeometry>
        </mxCell>
        <mxCell id="ZR1mIILZhfdRttXI2OpS-8" value="Combat Service" style="rounded=0;whiteSpace=wrap;html=1;fillColor=#e1d5e7;strokeColor=#9673a6;" parent="1" vertex="1">
          <mxGeometry x="-230" y="910" width="120" height="60" as="geometry" />
        </mxCell>
        <mxCell id="ZR1mIILZhfdRttXI2OpS-11" value="&lt;div&gt;Webscoket&lt;/div&gt;Combat" style="ellipse;whiteSpace=wrap;html=1;aspect=fixed;" parent="1" vertex="1">
          <mxGeometry x="-130" y="286" width="80" height="80" as="geometry" />
        </mxCell>
        <mxCell id="ZR1mIILZhfdRttXI2OpS-12" value="&lt;div&gt;Webscoket&lt;/div&gt;Chat" style="ellipse;whiteSpace=wrap;html=1;aspect=fixed;" parent="1" vertex="1">
          <mxGeometry x="-210" y="288" width="80" height="80" as="geometry" />
        </mxCell>
        <mxCell id="ZR1mIILZhfdRttXI2OpS-14" value="" style="rounded=0;whiteSpace=wrap;html=1;fillColor=#ffe6cc;strokeColor=#d79b00;" parent="1" vertex="1">
          <mxGeometry x="-476" y="1020" width="386" height="139" as="geometry" />
        </mxCell>
        <mxCell id="ZR1mIILZhfdRttXI2OpS-19" style="edgeStyle=orthogonalEdgeStyle;rounded=0;orthogonalLoop=1;jettySize=auto;html=1;entryX=0;entryY=0.5;entryDx=0;entryDy=0;startArrow=classic;startFill=1;exitX=0.5;exitY=1;exitDx=0;exitDy=0;" parent="1" source="ZR1mIILZhfdRttXI2OpS-12" target="ZR1mIILZhfdRttXI2OpS-17" edge="1">
          <mxGeometry relative="1" as="geometry">
            <mxPoint x="-530" y="1120" as="targetPoint" />
            <Array as="points">
              <mxPoint x="-170" y="390" />
              <mxPoint x="-510" y="390" />
              <mxPoint x="-510" y="1090" />
            </Array>
          </mxGeometry>
        </mxCell>
        <mxCell id="ZR1mIILZhfdRttXI2OpS-15" value="MicroService Chat" style="text;html=1;align=center;verticalAlign=middle;whiteSpace=wrap;rounded=0;" parent="1" vertex="1">
          <mxGeometry x="-340" y="1029" width="114" height="31" as="geometry" />
        </mxCell>
        <mxCell id="ZR1mIILZhfdRttXI2OpS-16" style="edgeStyle=orthogonalEdgeStyle;rounded=0;orthogonalLoop=1;jettySize=auto;html=1;exitX=1;exitY=0.5;exitDx=0;exitDy=0;entryX=0;entryY=0.5;entryDx=0;entryDy=0;startArrow=classic;startFill=1;" parent="1" source="ZR1mIILZhfdRttXI2OpS-17" target="ZR1mIILZhfdRttXI2OpS-18" edge="1">
          <mxGeometry relative="1" as="geometry" />
        </mxCell>
        <mxCell id="ZR1mIILZhfdRttXI2OpS-17" value="Webscoket" style="ellipse;whiteSpace=wrap;html=1;aspect=fixed;" parent="1" vertex="1">
          <mxGeometry x="-453" y="1050" width="80" height="80" as="geometry" />
        </mxCell>
        <mxCell id="ZR1mIILZhfdRttXI2OpS-30" style="edgeStyle=orthogonalEdgeStyle;rounded=0;orthogonalLoop=1;jettySize=auto;html=1;exitX=1;exitY=0.5;exitDx=0;exitDy=0;entryX=0;entryY=0.5;entryDx=0;entryDy=0;jumpStyle=arc;jumpSize=12;" parent="1" source="ZR1mIILZhfdRttXI2OpS-18" target="ZR1mIILZhfdRttXI2OpS-22" edge="1">
          <mxGeometry relative="1" as="geometry">
            <Array as="points">
              <mxPoint x="-30" y="1089" />
              <mxPoint x="-30" y="480" />
              <mxPoint x="180" y="480" />
              <mxPoint x="180" y="220" />
            </Array>
          </mxGeometry>
        </mxCell>
        <mxCell id="ZR1mIILZhfdRttXI2OpS-18" value="Chat Service" style="rounded=0;whiteSpace=wrap;html=1;fillColor=#e1d5e7;strokeColor=#9673a6;" parent="1" vertex="1">
          <mxGeometry x="-230" y="1059" width="120" height="60" as="geometry" />
        </mxCell>
        <mxCell id="ZR1mIILZhfdRttXI2OpS-25" style="edgeStyle=orthogonalEdgeStyle;rounded=0;orthogonalLoop=1;jettySize=auto;html=1;exitX=1;exitY=0.5;exitDx=0;exitDy=0;entryX=0;entryY=0.5;entryDx=0;entryDy=0;startArrow=classic;startFill=1;" parent="1" source="ZR1mIILZhfdRttXI2OpS-22" target="ZR1mIILZhfdRttXI2OpS-23" edge="1">
          <mxGeometry relative="1" as="geometry" />
        </mxCell>
        <mxCell id="ZR1mIILZhfdRttXI2OpS-22" value="&lt;div&gt;ChatHistory&lt;/div&gt;&lt;div&gt;Controller&lt;/div&gt;" style="rounded=0;whiteSpace=wrap;html=1;fillColor=#dae8fc;strokeColor=#6c8ebf;" parent="1" vertex="1">
          <mxGeometry x="266" y="190" width="120" height="60" as="geometry" />
        </mxCell>
        <mxCell id="ZR1mIILZhfdRttXI2OpS-26" style="edgeStyle=orthogonalEdgeStyle;rounded=0;orthogonalLoop=1;jettySize=auto;html=1;exitX=1;exitY=0.5;exitDx=0;exitDy=0;entryX=0;entryY=0.5;entryDx=0;entryDy=0;startArrow=classic;startFill=1;" parent="1" source="ZR1mIILZhfdRttXI2OpS-23" target="ZR1mIILZhfdRttXI2OpS-24" edge="1">
          <mxGeometry relative="1" as="geometry" />
        </mxCell>
        <mxCell id="ZR1mIILZhfdRttXI2OpS-23" value="Service" style="rounded=0;whiteSpace=wrap;html=1;fillColor=#e1d5e7;strokeColor=#9673a6;" parent="1" vertex="1">
          <mxGeometry x="462" y="190" width="120" height="60" as="geometry" />
        </mxCell>
        <mxCell id="ZR1mIILZhfdRttXI2OpS-24" value="Repo" style="rounded=0;whiteSpace=wrap;html=1;fillColor=#d5e8d4;strokeColor=#82b366;" parent="1" vertex="1">
          <mxGeometry x="662" y="190" width="120" height="60" as="geometry" />
        </mxCell>
        <mxCell id="ZR1mIILZhfdRttXI2OpS-27" style="edgeStyle=orthogonalEdgeStyle;rounded=0;orthogonalLoop=1;jettySize=auto;html=1;exitX=1;exitY=0.5;exitDx=0;exitDy=0;entryX=0;entryY=0.5;entryDx=0;entryDy=0;entryPerimeter=0;startArrow=classic;startFill=1;" parent="1" source="ZR1mIILZhfdRttXI2OpS-24" target="ReFChXX15u1lok4fxAyE-16" edge="1">
          <mxGeometry relative="1" as="geometry" />
        </mxCell>
        <mxCell id="9HMXi51ytBtQ5vhrzl-I-1" value="" style="rounded=0;whiteSpace=wrap;html=1;fillColor=#ffe6cc;strokeColor=#d79b00;" vertex="1" parent="1">
          <mxGeometry x="1370" y="871" width="520" height="110" as="geometry" />
        </mxCell>
        <mxCell id="9HMXi51ytBtQ5vhrzl-I-2" style="edgeStyle=orthogonalEdgeStyle;rounded=0;orthogonalLoop=1;jettySize=auto;html=1;exitX=1;exitY=0.5;exitDx=0;exitDy=0;entryX=0;entryY=0.5;entryDx=0;entryDy=0;startArrow=blockThin;startFill=1;" edge="1" parent="1" source="9HMXi51ytBtQ5vhrzl-I-3" target="9HMXi51ytBtQ5vhrzl-I-5">
          <mxGeometry relative="1" as="geometry" />
        </mxCell>
        <mxCell id="9HMXi51ytBtQ5vhrzl-I-3" value="Log queue Listener" style="rounded=0;whiteSpace=wrap;html=1;fillColor=#dae8fc;strokeColor=#6c8ebf;" vertex="1" parent="1">
          <mxGeometry x="1410" y="896" width="120" height="60" as="geometry" />
        </mxCell>
        <mxCell id="9HMXi51ytBtQ5vhrzl-I-4" style="edgeStyle=orthogonalEdgeStyle;rounded=0;orthogonalLoop=1;jettySize=auto;html=1;exitX=1;exitY=0.5;exitDx=0;exitDy=0;startArrow=classicThin;startFill=1;" edge="1" parent="1" source="9HMXi51ytBtQ5vhrzl-I-5" target="9HMXi51ytBtQ5vhrzl-I-7">
          <mxGeometry relative="1" as="geometry" />
        </mxCell>
        <mxCell id="9HMXi51ytBtQ5vhrzl-I-11" style="edgeStyle=orthogonalEdgeStyle;rounded=0;orthogonalLoop=1;jettySize=auto;html=1;" edge="1" parent="1" source="9HMXi51ytBtQ5vhrzl-I-5" target="9HMXi51ytBtQ5vhrzl-I-10">
          <mxGeometry relative="1" as="geometry">
            <Array as="points">
              <mxPoint x="1680" y="850" />
              <mxPoint x="1680" y="850" />
            </Array>
          </mxGeometry>
        </mxCell>
        <mxCell id="9HMXi51ytBtQ5vhrzl-I-5" value="Service" style="rounded=0;whiteSpace=wrap;html=1;fillColor=#e1d5e7;strokeColor=#9673a6;" vertex="1" parent="1">
          <mxGeometry x="1606" y="896" width="120" height="60" as="geometry" />
        </mxCell>
        <mxCell id="9HMXi51ytBtQ5vhrzl-I-6" value="MicroService Historique de messages" style="text;html=1;align=center;verticalAlign=middle;whiteSpace=wrap;rounded=0;" vertex="1" parent="1">
          <mxGeometry x="1470" y="866" width="210" height="30" as="geometry" />
        </mxCell>
        <mxCell id="9HMXi51ytBtQ5vhrzl-I-7" value="Librairie" style="rounded=0;whiteSpace=wrap;html=1;fillColor=#bac8d3;strokeColor=#23445d;" vertex="1" parent="1">
          <mxGeometry x="1770" y="897" width="90" height="60" as="geometry" />
        </mxCell>
        <mxCell id="9HMXi51ytBtQ5vhrzl-I-13" style="edgeStyle=orthogonalEdgeStyle;rounded=0;orthogonalLoop=1;jettySize=auto;html=1;entryX=0.5;entryY=0;entryDx=0;entryDy=0;" edge="1" parent="1" source="9HMXi51ytBtQ5vhrzl-I-8" target="9HMXi51ytBtQ5vhrzl-I-3">
          <mxGeometry relative="1" as="geometry">
            <Array as="points">
              <mxPoint x="930" y="800" />
              <mxPoint x="1470" y="800" />
            </Array>
          </mxGeometry>
        </mxCell>
        <mxCell id="9HMXi51ytBtQ5vhrzl-I-8" value="&lt;font color=&quot;#ffffff&quot;&gt;Log Queue&lt;/font&gt;" style="rounded=0;whiteSpace=wrap;html=1;fillColor=#0EE2DB;fontColor=#ffffff;strokeColor=#006EAF;" vertex="1" parent="1">
          <mxGeometry x="863" y="691" width="134" height="66" as="geometry" />
        </mxCell>
        <mxCell id="9HMXi51ytBtQ5vhrzl-I-10" value="&lt;span style=&quot;white-space: pre;&quot;&gt;&#x9;&lt;/span&gt;&lt;span style=&quot;white-space: pre;&quot;&gt;&#x9;&lt;/span&gt;&lt;span style=&quot;white-space: pre;&quot;&gt;&#x9;&lt;/span&gt;LogHistory.txt&lt;div&gt;&lt;br&gt;&lt;/div&gt;" style="sketch=0;pointerEvents=1;shadow=0;dashed=0;html=1;strokeColor=none;fillColor=#505050;labelPosition=center;verticalLabelPosition=bottom;verticalAlign=top;outlineConnect=0;align=center;shape=mxgraph.office.devices.hard_disk;" vertex="1" parent="1">
          <mxGeometry x="1670" y="710" width="56" height="76.5" as="geometry" />
        </mxCell>
        <mxCell id="9HMXi51ytBtQ5vhrzl-I-20" style="edgeStyle=orthogonalEdgeStyle;rounded=0;orthogonalLoop=1;jettySize=auto;html=1;entryX=0.5;entryY=0;entryDx=0;entryDy=0;" edge="1" parent="1" source="9HMXi51ytBtQ5vhrzl-I-16" target="9HMXi51ytBtQ5vhrzl-I-19">
          <mxGeometry relative="1" as="geometry" />
        </mxCell>
        <mxCell id="9HMXi51ytBtQ5vhrzl-I-16" value="Webscoket" style="ellipse;whiteSpace=wrap;html=1;aspect=fixed;" vertex="1" parent="1">
          <mxGeometry x="284" width="80" height="80" as="geometry" />
        </mxCell>
        <mxCell id="9HMXi51ytBtQ5vhrzl-I-19" value="&lt;div&gt;Webscoket&lt;/div&gt;Notifcations" style="ellipse;whiteSpace=wrap;html=1;aspect=fixed;" vertex="1" parent="1">
          <mxGeometry x="-150" y="152" width="80" height="80" as="geometry" />
        </mxCell>
      </root>
    </mxGraphModel>
  </diagram>
</mxfile>
